HIERARCHY
ROOT hip
{
  OFFSET 0 90.174 2.4664
  CHANNELS 6 Xposition Yposition Zposition Zrotation Xrotation Yrotation
  JOINT abdomen
  {
    OFFSET 0 -1.186 -1.5018
    CHANNELS 6 Xposition Yposition Zposition Zrotation Xrotation Yrotation
    JOINT abdomen2
    {
      OFFSET 0 9.964 0.2134
      CHANNELS 6 Xposition Yposition Zposition Zrotation Xrotation Yrotation
      JOINT chest
      {
        OFFSET 0 13.134 -3.2573
        CHANNELS 6 Xposition Yposition Zposition Zrotation Xrotation Yrotation
        JOINT neck
        {
          OFFSET 0 20.686 -1.6905
          CHANNELS 6 Xposition Yposition Zposition Zrotation Xrotation Yrotation
          JOINT head
          {
            OFFSET 0 7.238 -0.1237
            CHANNELS 6 Xposition Yposition Zposition Zrotation Xrotation Yrotation
            End Site
            {
              OFFSET 0 0 0
            }
          }
        }
        JOINT lCollar
        {
          OFFSET 1.7069 20.075 5.0056
          CHANNELS 6 Xposition Yposition Zposition Zrotation Xrotation Yrotation
          JOINT lShldr
          {
            OFFSET 13.6458 -0.047 -4.849
            CHANNELS 6 Xposition Yposition Zposition Zrotation Xrotation Yrotation
            JOINT lForeArm
            {
              OFFSET 28.3255 -0.9759 2.2888
              CHANNELS 6 Xposition Yposition Zposition Zrotation Xrotation Yrotation
              JOINT lHand
              {
                OFFSET 22.1583 -0.53 10.8316
                CHANNELS 6 Xposition Yposition Zposition Zrotation Xrotation Yrotation
                JOINT lThumb1
                {
                  OFFSET 0.786 0.112 2.5817
                  CHANNELS 6 Xposition Yposition Zposition Zrotation Xrotation Yrotation
                  JOINT lThumb2
                  {
                    OFFSET 0.3601 -0.878 4.2331
                    CHANNELS 6 Xposition Yposition Zposition Zrotation Xrotation Yrotation
                    JOINT lThumb2_End
                    {
                      OFFSET 1.8127 -1.216 2.2227
                      CHANNELS 6 Xposition Yposition Zposition Zrotation Xrotation Yrotation
                      End Site
                      {
                        OFFSET 0.0181 -0.0122 0.0222
                      }
                    }
                  }
                }
                JOINT lCarpal1
                {
                  OFFSET 0.9571 1.114 1.7695
                  CHANNELS 6 Xposition Yposition Zposition Zrotation Xrotation Yrotation
                  JOINT lIndex1
                  {
                    OFFSET 4.1246 0.487 4.1451
                    CHANNELS 6 Xposition Yposition Zposition Zrotation Xrotation Yrotation
                    JOINT lIndex2
                    {
                      OFFSET 3.4052 -1.454 2.7682
                      CHANNELS 6 Xposition Yposition Zposition Zrotation Xrotation Yrotation
                      JOINT lIndex2_End
                      {
                        OFFSET 1.4531 -1.795 1.2713
                        CHANNELS 6 Xposition Yposition Zposition Zrotation Xrotation Yrotation
                        End Site
                        {
                          OFFSET 0.0145 -0.0179 0.0127
                        }
                      }
                    }
                  }
                  JOINT lMid1
                  {
                    OFFSET 5.6954 0.21 2.1184
                    CHANNELS 6 Xposition Yposition Zposition Zrotation Xrotation Yrotation
                    JOINT lMid2
                    {
                      OFFSET 3.9766 -1.54 2.3863
                      CHANNELS 6 Xposition Yposition Zposition Zrotation Xrotation Yrotation
                      JOINT lMid2_End
                      {
                        OFFSET 1.4042 -1.926 1.125
                        CHANNELS 6 Xposition Yposition Zposition Zrotation Xrotation Yrotation
                        End Site
                        {
                          OFFSET 0.014 -0.0193 0.0113
                        }
                      }
                    }
                  }
                }
                JOINT lCarpal2
                {
                  OFFSET 2.0956 0.66 -0.3894
                  CHANNELS 6 Xposition Yposition Zposition Zrotation Xrotation Yrotation
                  JOINT lRing1
                  {
                    OFFSET 5.0395 -0.09 2.4971
                    CHANNELS 6 Xposition Yposition Zposition Zrotation Xrotation Yrotation
                    JOINT lRing2
                    {
                      OFFSET 3.7921 -1.552 1.4806
                      CHANNELS 6 Xposition Yposition Zposition Zrotation Xrotation Yrotation
                      JOINT lRing2_End
                      {
                        OFFSET 1.4655 -1.808 0.9609
                        CHANNELS 6 Xposition Yposition Zposition Zrotation Xrotation Yrotation
                        End Site
                        {
                          OFFSET 0.0147 -0.0181 0.0096
                        }
                      }
                    }
                  }
                  JOINT lPinky1
                  {
                    OFFSET 4.9141 -1.269 0.3591
                    CHANNELS 6 Xposition Yposition Zposition Zrotation Xrotation Yrotation
                    JOINT lPinky2
                    {
                      OFFSET 3.1477 -1.685 0.8462
                      CHANNELS 6 Xposition Yposition Zposition Zrotation Xrotation Yrotation
                      JOINT lPinky2_End
                      {
                        OFFSET 0.8055 -1.585 0.7955
                        CHANNELS 6 Xposition Yposition Zposition Zrotation Xrotation Yrotation
                        End Site
                        {
                          OFFSET 0.0081 -0.0158 0.008
                        }
                      }
                    }
                  }
                }
              }
            }
          }
        }
        JOINT rCollar
        {
          OFFSET -1.7069 20.075 5.0056
          CHANNELS 6 Xposition Yposition Zposition Zrotation Xrotation Yrotation
          JOINT rShldr
          {
            OFFSET -13.6458 -0.047 -4.849
            CHANNELS 6 Xposition Yposition Zposition Zrotation Xrotation Yrotation
            JOINT rForeArm
            {
              OFFSET -28.3255 -0.9759 2.2888
              CHANNELS 6 Xposition Yposition Zposition Zrotation Xrotation Yrotation
              JOINT rHand
              {
                OFFSET -22.1583 -0.53 10.8316
                CHANNELS 6 Xposition Yposition Zposition Zrotation Xrotation Yrotation
                JOINT rThumb1
                {
                  OFFSET -0.786 0.112 2.5817
                  CHANNELS 6 Xposition Yposition Zposition Zrotation Xrotation Yrotation
                  JOINT rThumb2
                  {
                    OFFSET -0.3601 -0.878 4.2331
                    CHANNELS 6 Xposition Yposition Zposition Zrotation Xrotation Yrotation
                    JOINT rThumb2_End
                    {
                      OFFSET -1.8127 -1.216 2.2227
                      CHANNELS 6 Xposition Yposition Zposition Zrotation Xrotation Yrotation
                      End Site
                      {
                        OFFSET -0.0181 -0.0122 0.0222
                      }
                    }
                  }
                }
                JOINT rCarpal1
                {
                  OFFSET -0.9571 1.114 1.7695
                  CHANNELS 6 Xposition Yposition Zposition Zrotation Xrotation Yrotation
                  JOINT rIndex1
                  {
                    OFFSET -4.1246 0.487 4.1451
                    CHANNELS 6 Xposition Yposition Zposition Zrotation Xrotation Yrotation
                    JOINT rIndex2
                    {
                      OFFSET -3.4052 -1.454 2.7682
                      CHANNELS 6 Xposition Yposition Zposition Zrotation Xrotation Yrotation
                      JOINT rIndex2_End
                      {
                        OFFSET -1.4531 -1.795 1.2713
                        CHANNELS 6 Xposition Yposition Zposition Zrotation Xrotation Yrotation
                        End Site
                        {
                          OFFSET -0.0145 -0.018 0.0127
                        }
                      }
                    }
                  }
                  JOINT rMid1
                  {
                    OFFSET -5.6954 0.21 2.1184
                    CHANNELS 6 Xposition Yposition Zposition Zrotation Xrotation Yrotation
                    JOINT rMid2
                    {
                      OFFSET -3.9766 -1.54 2.3863
                      CHANNELS 6 Xposition Yposition Zposition Zrotation Xrotation Yrotation
                      JOINT rMid2_End
                      {
                        OFFSET -1.4042 -1.926 1.125
                        CHANNELS 6 Xposition Yposition Zposition Zrotation Xrotation Yrotation
                        End Site
                        {
                          OFFSET -0.014 -0.0193 0.0113
                        }
                      }
                    }
                  }
                }
                JOINT rCarpal2
                {
                  OFFSET -2.0956 0.66 -0.3894
                  CHANNELS 6 Xposition Yposition Zposition Zrotation Xrotation Yrotation
                  JOINT rRing1
                  {
                    OFFSET -5.0395 -0.09 2.4971
                    CHANNELS 6 Xposition Yposition Zposition Zrotation Xrotation Yrotation
                    JOINT rRing2
                    {
                      OFFSET -3.7921 -1.552 1.4806
                      CHANNELS 6 Xposition Yposition Zposition Zrotation Xrotation Yrotation
                      JOINT rRing2_End
                      {
                        OFFSET -1.4655 -1.808 0.9609
                        CHANNELS 6 Xposition Yposition Zposition Zrotation Xrotation Yrotation
                        End Site
                        {
                          OFFSET -0.0147 -0.0181 0.0096
                        }
                      }
                    }
                  }
                  JOINT rPinky1
                  {
                    OFFSET -4.9141 -1.269 0.3592
                    CHANNELS 6 Xposition Yposition Zposition Zrotation Xrotation Yrotation
                    JOINT rPinky2
                    {
                      OFFSET -3.1477 -1.685 0.8462
                      CHANNELS 6 Xposition Yposition Zposition Zrotation Xrotation Yrotation
                      JOINT rPinky2_End
                      {
                        OFFSET -0.8055 -1.585 0.7955
                        CHANNELS 6 Xposition Yposition Zposition Zrotation Xrotation Yrotation
                        End Site
                        {
                          OFFSET -0.0081 -0.0158 0.008
                        }
                      }
                    }
                  }
                }
              }
            }
          }
        }
      }
    }
  }
  JOINT lThigh
  {
    OFFSET 8.367 -8.2066 0.5982
    CHANNELS 6 Xposition Yposition Zposition Zrotation Xrotation Yrotation
    JOINT lShin
    {
      OFFSET 2.1923 -43.463 -0.4932
      CHANNELS 6 Xposition Yposition Zposition Zrotation Xrotation Yrotation
      JOINT lFoot
      {
        OFFSET 0.7333 -45.8593 -2.6451
        CHANNELS 6 Xposition Yposition Zposition Zrotation Xrotation Yrotation
        End Site
        {
          OFFSET 2.6618 -4.2699 12.3931
        }
      }
    }
  }
  JOINT rThigh
  {
    OFFSET -8.367 -8.2066 0.5982
    CHANNELS 6 Xposition Yposition Zposition Zrotation Xrotation Yrotation
    JOINT rShin
    {
      OFFSET -2.1923 -43.463 -0.4931
      CHANNELS 6 Xposition Yposition Zposition Zrotation Xrotation Yrotation
      JOINT rFoot
      {
        OFFSET -0.7333 -45.8593 -2.6451
        CHANNELS 6 Xposition Yposition Zposition Zrotation Xrotation Yrotation
        End Site
        {
          OFFSET -2.6618 -4.2699 12.3931
        }
      }
    }
  }
}
MOTION
Frames:	4
Frame Time:	0.0333333
-0.512122 -0.791712 66.2855 -180 -89.9981 -180 0 -1.186 -1.5018 -0.124866 1.83719 -0.145049 0 9.964 0.2134 -0.245264 3.67468 -0.286311 5.55112e-017 13.134 -3.2573 -0.245264 3.67468 -0.286311 8.32667e-017 20.686 -1.6905 1.14654e-005 49.6477 -8.77685e-006 0 7.238 -0.1237 2.14839e-007 -43.7997 1.50611e-008 1.7069 20.075 5.0056 -22.6436 -9.78469 13.9335 13.6458 -0.047 -4.849 -56.5411 5.74334 -37.3 28.3255 -0.9759 2.2888 -18.4841 13.3578 -78.3777 22.1583 -0.53 10.8316 -51.5072 26.0233 31.7143 0.786 0.112 2.5817 6.36111e-015 3.18055e-015 3.18055e-015 0.3601 -0.878 4.2331 -4.9149e-007 5.54629e-007 1.48363e-006 1.8127 -1.216 2.2227 5.29669e-031 1.90833e-014 -1.59028e-015 0.9571 1.114 1.7695 4.77083e-015 -3.18055e-015 4.77083e-015 4.1246 0.487 4.1451 7.94503e-031 -3.18055e-015 1.43125e-014 3.4052 -1.454 2.7682 -4.9149e-007 5.54629e-007 1.48363e-006 1.4531 -1.795 1.2713 1.59028e-015 2.8625e-014 6.36111e-015 5.6954 0.21 2.1184 7.94503e-031 -3.18055e-015 1.43125e-014 3.9766 -1.54 2.3863 -4.9149e-007 5.54629e-007 1.48363e-006 1.4042 -1.926 1.125 1.59028e-015 2.8625e-014 6.36111e-015 2.0956 0.66 -0.3894 4.77083e-015 -3.18055e-015 4.77083e-015 5.0395 -0.09 2.4971 7.94503e-031 -3.18055e-015 1.43125e-014 3.7921 -1.552 1.4806 -4.9149e-007 5.54629e-007 1.48363e-006 1.4655 -1.808 0.9609 1.59028e-015 2.8625e-014 6.36111e-015 4.9141 -1.269 0.3591 7.94503e-031 -3.18055e-015 1.43125e-014 3.1477 -1.685 0.8462 -4.9149e-007 5.54629e-007 1.48363e-006 0.8055 -1.585 0.7955 1.59028e-015 2.8625e-014 6.36111e-015 -1.7069 20.075 5.0056 15.7674 -8.23473 -5.87912 -13.6458 -0.047 -4.849 58.1505 8.42854 22.3296 -28.3255 -0.9759 2.2888 21.5284 -5.41732 56.7883 -22.1583 -0.53 10.8316 33.9483 32.1332 8.55395 -0.786 0.112 2.5817 5.67981e-007 2.29821e-006 -3.08384e-007 -0.3601 -0.878 4.2331 5.39533e-006 1.70731e-006 1.79245e-006 -1.8127 -1.216 2.2227 6.75868e-015 -3.18055e-015 -1.98785e-015 -0.9571 1.114 1.7695 7.45443e-015 0 -0 -4.1246 0.487 4.1451 5.67981e-007 2.29821e-006 -3.08384e-007 -3.4052 -1.454 2.7682 5.39533e-006 1.70731e-006 1.79245e-006 -1.4531 -1.795 1.2713 1.19271e-015 3.18055e-015 -1.19271e-015 -5.6954 0.21 2.1184 5.67981e-007 2.29821e-006 -3.08384e-007 -3.9766 -1.54 2.3863 5.39533e-006 1.70731e-006 1.79245e-006 -1.4042 -1.926 1.125 1.19271e-015 3.18055e-015 -1.19271e-015 -2.0956 0.66 -0.3894 7.45443e-015 0 -0 -5.0395 -0.09 2.4971 5.67981e-007 2.29821e-006 -3.08384e-007 -3.7921 -1.552 1.4806 5.39533e-006 1.70731e-006 1.79245e-006 -1.4655 -1.808 0.9609 1.19271e-015 3.18055e-015 -1.19271e-015 -4.9141 -1.269 0.3592 5.67981e-007 2.29821e-006 -3.08384e-007 -3.1477 -1.685 0.8462 5.39533e-006 1.70731e-006 1.79245e-006 -0.8055 -1.585 0.7955 1.19271e-015 3.18055e-015 -1.19271e-015 8.367 -8.2066 0.5982 13.0645 0.170738 7.07164 2.1923 -43.463 -0.4932 1.91722 4.58637 0.192131 0.7333 -45.8593 -2.6451 11.0808 14.5516 -5.32371 -8.367 -8.2066 0.5982 -5.89344 -15.8785 -5.50689 -2.1923 -43.463 -0.4931 1.56636 38.7616 -2.50316 -0.7333 -45.8593 -2.6451 -12.186 20.7106 1.99782 
-0.51289 -0.790317 66.2858 -180 -89.9981 -180 0 -1.186 -1.5018 -0.124866 1.83719 -0.145049 0 9.964 0.2134 -0.245264 3.67468 -0.286311 1.11022e-016 13.134 -3.2573 -0.245264 3.67468 -0.286311 2.77556e-017 20.686 -1.6905 1.1229e-005 49.4144 -7.44338e-006 2.77556e-017 7.238 -0.1237 1.04451e-007 -42.9959 1.61061e-007 1.7069 20.075 5.0056 -22.6436 -9.78469 13.9335 13.6458 -0.047 -4.849 -56.541 5.74333 -37.3 28.3255 -0.9759 2.2888 -18.4603 13.494 -78.4777 22.1583 -0.53 10.8316 -50.9853 25.9041 31.564 0.786 0.112 2.5817 -4.77083e-015 -3.18055e-015 -3.18055e-015 0.3601 -0.878 4.2331 -4.8992e-007 5.59256e-007 1.48302e-006 1.8127 -1.216 2.2227 1.74711e-006 2.51893e-006 3.10089e-006 0.9571 1.114 1.7695 -3.18055e-015 -3.18055e-015 -3.18055e-015 4.1246 0.487 4.1451 -1.76556e-031 -3.18055e-015 -3.18055e-015 3.4052 -1.454 2.7682 -4.8992e-007 5.59256e-007 1.48302e-006 1.4531 -1.795 1.2713 1.74711e-006 2.51893e-006 3.10089e-006 5.6954 0.21 2.1184 -1.76556e-031 -3.18055e-015 -3.18055e-015 3.9766 -1.54 2.3863 -4.8992e-007 5.59256e-007 1.48302e-006 1.4042 -1.926 1.125 1.74711e-006 2.51893e-006 3.10089e-006 2.0956 0.66 -0.3894 -3.18055e-015 -3.18055e-015 -3.18055e-015 5.0395 -0.09 2.4971 -1.76556e-031 -3.18055e-015 -3.18055e-015 3.7921 -1.552 1.4806 -4.8992e-007 5.59256e-007 1.48302e-006 1.4655 -1.808 0.9609 1.74711e-006 2.51893e-006 3.10089e-006 4.9141 -1.269 0.3591 -1.76556e-031 -3.18055e-015 -3.18055e-015 3.1477 -1.685 0.8462 -4.8992e-007 5.59256e-007 1.48302e-006 0.8055 -1.585 0.7955 1.74711e-006 2.51893e-006 3.10089e-006 -1.7069 20.075 5.0056 15.7674 -8.23473 -5.87912 -13.6458 -0.047 -4.849 58.1505 8.42854 22.3296 -28.3255 -0.9759 2.2888 21.5632 -5.34665 57.2237 -22.1583 -0.53 10.8316 33.7287 32.0295 8.60666 -0.786 0.112 2.5817 4.27342e-007 1.97222e-006 5.0231e-007 -0.3601 -0.878 4.2331 1.09491e-007 3.5024e-007 -7.67584e-007 -1.8127 -1.216 2.2227 -8.22135e-007 7.47876e-007 1.66623e-006 -0.9571 1.114 1.7695 -1.59028e-015 -6.36111e-015 -1.98785e-015 -4.1246 0.487 4.1451 4.27342e-007 1.97222e-006 5.0231e-007 -3.4052 -1.454 2.7682 1.09491e-007 3.5024e-007 -7.67584e-007 -1.4531 -1.795 1.2713 -8.22135e-007 7.47876e-007 1.66623e-006 -5.6954 0.21 2.1184 4.27342e-007 1.97222e-006 5.0231e-007 -3.9766 -1.54 2.3863 1.09491e-007 3.5024e-007 -7.67584e-007 -1.4042 -1.926 1.125 -8.22135e-007 7.47876e-007 1.66623e-006 -2.0956 0.66 -0.3894 -1.59028e-015 -6.36111e-015 -1.98785e-015 -5.0395 -0.09 2.4971 4.27342e-007 1.97222e-006 5.0231e-007 -3.7921 -1.552 1.4806 1.09491e-007 3.5024e-007 -7.67584e-007 -1.4655 -1.808 0.9609 -8.22135e-007 7.47876e-007 1.66623e-006 -4.9141 -1.269 0.3592 4.27342e-007 1.97222e-006 5.0231e-007 -3.1477 -1.685 0.8462 1.09491e-007 3.5024e-007 -7.67584e-007 -0.8055 -1.585 0.7955 -8.22135e-007 7.47876e-007 1.66623e-006 8.367 -8.2066 0.5982 13.0076 0.230033 6.60493 2.1923 -43.463 -0.4932 1.91774 4.58516 0.201277 0.7333 -45.8593 -2.6451 10.9555 14.6772 -4.85619 -8.367 -8.2066 0.5982 -5.71266 -15.8977 -5.13228 -2.1923 -43.463 -0.4931 1.56678 38.7688 -2.50737 -0.7333 -45.8593 -2.6451 -11.9224 20.7629 1.61174 
-0.513678 -0.788899 66.2861 -180 -89.9981 -180 0 -1.186 -1.5018 -0.124866 1.83719 -0.145049 0 9.964 0.2134 -0.245264 3.67468 -0.286311 1.11022e-016 13.134 -3.2573 -0.245264 3.67468 -0.286311 8.32667e-017 20.686 -1.6905 1.14139e-005 49.181 -8.23568e-006 2.77556e-017 7.238 -0.1237 6.48635e-008 -42.1912 1.58173e-007 1.7069 20.075 5.0056 -22.6436 -9.78469 13.9335 13.6458 -0.047 -4.849 -56.541 5.74335 -37.3 28.3255 -0.9759 2.2888 -18.4363 13.6302 -78.5778 22.1583 -0.53 10.8316 -50.4639 25.7835 31.4149 0.786 0.112 2.5817 7.58022e-007 -8.59218e-007 2.05495e-006 0.3601 -0.878 4.2331 4.88339e-007 -5.63876e-007 -1.4824e-006 1.8127 -1.216 2.2227 -7.95139e-015 3.18055e-015 -6.36111e-015 0.9571 1.114 1.7695 -6.36111e-015 3.18055e-015 3.18055e-015 4.1246 0.487 4.1451 7.58022e-007 -8.59218e-007 2.05495e-006 3.4052 -1.454 2.7682 4.88339e-007 -5.63876e-007 -1.4824e-006 1.4531 -1.795 1.2713 -7.95139e-015 6.36111e-015 4.77083e-015 5.6954 0.21 2.1184 7.58022e-007 -8.59218e-007 2.05495e-006 3.9766 -1.54 2.3863 4.88339e-007 -5.63876e-007 -1.4824e-006 1.4042 -1.926 1.125 -7.95139e-015 6.36111e-015 4.77083e-015 2.0956 0.66 -0.3894 -6.36111e-015 3.18055e-015 3.18055e-015 5.0395 -0.09 2.4971 7.58022e-007 -8.59218e-007 2.05495e-006 3.7921 -1.552 1.4806 4.88339e-007 -5.63876e-007 -1.4824e-006 1.4655 -1.808 0.9609 -7.95139e-015 6.36111e-015 4.77083e-015 4.9141 -1.269 0.3591 7.58022e-007 -8.59218e-007 2.05495e-006 3.1477 -1.685 0.8462 4.88339e-007 -5.63876e-007 -1.4824e-006 0.8055 -1.585 0.7955 -7.95139e-015 6.36111e-015 4.77083e-015 -1.7069 20.075 5.0056 15.7674 -8.23473 -5.87912 -13.6458 -0.047 -4.849 58.1505 8.42854 22.3296 -28.3255 -0.9759 2.2888 21.5976 -5.27576 57.6592 -22.1583 -0.53 10.8316 33.5094 31.9256 8.65885 -0.786 0.112 2.5817 -1.09332e-015 -3.18055e-015 -1.19271e-015 -0.3601 -0.878 4.2331 -1.88845e-015 -6.36111e-015 2.38542e-015 -1.8127 -1.216 2.2227 -5.56597e-015 0 3.97569e-016 -0.9571 1.114 1.7695 -5.96354e-016 -3.18055e-015 -2.78299e-015 -4.1246 0.487 4.1451 -8.84592e-015 -6.36111e-015 2.78299e-015 -3.4052 -1.454 2.7682 6.95746e-015 -3.18055e-015 2.78299e-015 -1.4531 -1.795 1.2713 9.93923e-017 0 3.18055e-015 -5.6954 0.21 2.1184 -8.84592e-015 -6.36111e-015 2.78299e-015 -3.9766 -1.54 2.3863 6.95746e-015 -3.18055e-015 2.78299e-015 -1.4042 -1.926 1.125 9.93923e-017 0 3.18055e-015 -2.0956 0.66 -0.3894 -5.96354e-016 -3.18055e-015 -2.78299e-015 -5.0395 -0.09 2.4971 -8.84592e-015 -6.36111e-015 2.78299e-015 -3.7921 -1.552 1.4806 6.95746e-015 -3.18055e-015 2.78299e-015 -1.4655 -1.808 0.9609 9.93923e-017 0 3.18055e-015 -4.9141 -1.269 0.3592 -8.84592e-015 -6.36111e-015 2.78299e-015 -3.1477 -1.685 0.8462 6.95746e-015 -3.18055e-015 2.78299e-015 -0.8055 -1.585 0.7955 9.93923e-017 0 3.18055e-015 8.367 -8.2066 0.5982 12.9513 0.289012 6.13804 2.1923 -43.463 -0.4932 1.91825 4.58567 0.2105 0.7333 -45.8593 -2.6451 10.829 14.801 -4.38782 -8.367 -8.2066 0.5982 -5.53171 -15.9156 -4.75754 -2.1923 -43.463 -0.4931 1.56729 38.7757 -2.51152 -0.7333 -45.8593 -2.6451 -11.6584 20.8136 1.22513 
-0.514483 -0.787465 66.2864 -180 -89.9981 -180 0 -1.186 -1.5018 -0.124866 1.83719 -0.145049 -5.55112e-017 9.964 0.2134 -0.245264 3.67468 -0.286311 0 13.134 -3.2573 -0.245264 3.67468 -0.286311 -2.77556e-017 20.686 -1.6905 1.27005e-005 48.9478 -9.3827e-006 0 7.238 -0.1237 -8.5051e-008 -41.3855 1.5436e-008 1.7069 20.075 5.0056 -22.6436 -9.78469 13.9335 13.6458 -0.047 -4.849 -56.5411 5.74334 -37.3 28.3255 -0.9759 2.2888 -18.412 13.7664 -78.6779 22.1583 -0.53 10.8316 -49.9432 25.6618 31.2672 0.786 0.112 2.5817 9.54166e-015 -6.36111e-015 3.18055e-015 0.3601 -0.878 4.2331 -3.18055e-015 0 1.59028e-015 1.8127 -1.216 2.2227 6.36111e-015 -3.18055e-015 -3.18055e-015 0.9571 1.114 1.7695 7.95139e-015 0 3.18055e-015 4.1246 0.487 4.1451 -6.36111e-015 -3.18055e-015 1.27222e-014 3.4052 -1.454 2.7682 1.76556e-031 -6.36111e-015 1.59028e-015 1.4531 -1.795 1.2713 -1.59028e-015 -6.36111e-015 -1.59028e-015 5.6954 0.21 2.1184 -6.36111e-015 -3.18055e-015 1.27222e-014 3.9766 -1.54 2.3863 1.76556e-031 -6.36111e-015 1.59028e-015 1.4042 -1.926 1.125 -1.59028e-015 -6.36111e-015 -1.59028e-015 2.0956 0.66 -0.3894 7.95139e-015 0 3.18055e-015 5.0395 -0.09 2.4971 -6.36111e-015 -3.18055e-015 1.27222e-014 3.7921 -1.552 1.4806 1.76556e-031 -6.36111e-015 1.59028e-015 1.4655 -1.808 0.9609 -1.59028e-015 -6.36111e-015 -1.59028e-015 4.9141 -1.269 0.3591 -6.36111e-015 -3.18055e-015 1.27222e-014 3.1477 -1.685 0.8462 1.76556e-031 -6.36111e-015 1.59028e-015 0.8055 -1.585 0.7955 -1.59028e-015 -6.36111e-015 -1.59028e-015 -1.7069 20.075 5.0056 15.7674 -8.23473 -5.87912 -13.6458 -0.047 -4.849 58.1505 8.42854 22.3296 -28.3255 -0.9759 2.2888 21.6314 -5.20453 58.0947 -22.1583 -0.53 10.8316 33.2905 31.8215 8.7105 -0.786 0.112 2.5817 6.10998e-007 8.3871e-007 -8.85112e-007 -0.3601 -0.878 4.2331 2.42997e-006 1.31895e-006 1.28199e-006 -1.8127 -1.216 2.2227 6.95746e-016 3.18055e-015 -1.39149e-015 -0.9571 1.114 1.7695 1.68967e-015 -6.36111e-015 -3.97569e-016 -4.1246 0.487 4.1451 6.10998e-007 8.3871e-007 -8.85112e-007 -3.4052 -1.454 2.7682 2.42997e-006 1.31895e-006 1.28199e-006 -1.4531 -1.795 1.2713 0 0 -1.19271e-015 -5.6954 0.21 2.1184 6.10998e-007 8.3871e-007 -8.85112e-007 -3.9766 -1.54 2.3863 2.42997e-006 1.31895e-006 1.28199e-006 -1.4042 -1.926 1.125 0 0 -1.19271e-015 -2.0956 0.66 -0.3894 1.68967e-015 -6.36111e-015 -3.97569e-016 -5.0395 -0.09 2.4971 6.10998e-007 8.3871e-007 -8.85112e-007 -3.7921 -1.552 1.4806 2.42997e-006 1.31895e-006 1.28199e-006 -1.4655 -1.808 0.9609 0 0 -1.19271e-015 -4.9141 -1.269 0.3592 6.10998e-007 8.3871e-007 -8.85112e-007 -3.1477 -1.685 0.8462 2.42997e-006 1.31895e-006 1.28199e-006 -0.8055 -1.585 0.7955 0 0 -1.19271e-015 8.367 -8.2066 0.5982 12.8955 0.348524 5.67105 2.1923 -43.463 -0.4932 1.9188 4.58596 0.219659 0.7333 -45.8593 -2.6451 10.7014 14.9239 -3.91871 -8.367 -8.2066 0.5982 -5.35046 -15.9328 -4.38257 -2.1923 -43.463 -0.4931 1.56768 38.783 -2.51565 -0.7333 -45.8593 -2.6451 -11.3938 20.8626 0.838002 
